<svg width="171" height="171" viewBox="0 0 171 171" fill="none" xmlns="http://www.w3.org/2000/svg">
<rect width="171" height="171" rx="32" fill="#ffffff"/>
<rect x="64.1033" y="64.1025" width="42.6936" height="42.6936" rx="21.3468" fill="#1E1E1E"/>
<path d="M42.6938 140.585C42.6938 133.679 48.2924 128.08 55.1985 128.08H115.576C122.482 128.08 128.081 133.679 128.081 140.585C128.081 151.725 114.612 157.305 106.734 149.427L97.8921 140.585C90.9859 133.679 79.7889 133.679 72.8828 140.585L64.0406 149.427C56.1631 157.305 42.6938 151.725 42.6938 140.585Z" fill="#1E1E1E"/>
<path d="M42.6938 30.1889C42.6938 19.0485 56.1631 13.4693 64.0406 21.3468L72.8828 30.1889C79.7889 37.095 90.9859 37.095 97.8921 30.1889L106.734 21.3468C114.612 13.4693 128.081 19.0485 128.081 30.1889C128.081 37.095 122.482 42.6936 115.576 42.6936H55.1985C48.2924 42.6936 42.6938 37.095 42.6938 30.1889Z" fill="#1E1E1E"/>
<path d="M30.3155 127.227C19.2274 127.227 13.7325 113.769 21.6517 106.008L30.3137 97.5194C37.1505 90.8193 37.2603 79.8452 30.5588 73.0097L21.0479 63.3085C13.2138 55.3178 18.875 41.8397 30.0654 41.8397C37.0397 41.8397 42.6936 47.4935 42.6936 54.4679L42.6936 114.849C42.6936 121.685 37.1517 127.227 30.3155 127.227Z" fill="#1E1E1E"/>
<path d="M140.459 128.08C151.547 128.08 157.042 114.623 149.123 106.862L140.461 98.3729C133.624 91.6728 133.514 80.6987 140.216 73.8632L149.727 64.162C157.561 56.1713 151.899 42.6932 140.709 42.6932C133.735 42.6932 128.081 48.347 128.081 55.3214V115.702C128.081 122.538 133.623 128.08 140.459 128.08Z" fill="#1E1E1E"/>
</svg>
